<svg xmlns="http://www.w3.org/2000/svg" version="1.1" xmlns:xlink="http://www.w3.org/1999/xlink" width="200" height="199"><svg xmlns="http://www.w3.org/2000/svg" version="1.1" xmlns:xlink="http://www.w3.org/1999/xlink" width="200" height="199"><svg width="200" height="199" viewBox="0 0 200 199" fill="none" xmlns="http://www.w3.org/2000/svg">
<path d="M110.149 1.69498C112.737 1.67258 116.193 1.74218 118.771 1.99108L117.808 1.76958C109.845 0.425877 105.404 0.109775 99.9909 0.000274658C103.448 0.144575 106.73 1.32418 110.149 1.69498Z" fill="#404CA8"></path>
<path d="M92.789 6.34029C95.335 5.30509 98.762 3.99869 101.384 3.18739C94.564 1.64709 89.365 0.671689 86.17 0.910589L83.861 1.25389C80.616 1.90089 76.289 2.78189 73.081 3.60549C76.072 3.11279 82.141 3.90409 91.12 5.95709C91.622 6.07159 92.277 6.38009 92.789 6.34029Z" fill="#404CA8"></path>
<path d="M76.171 17.3917C78.552 15.4507 81.78 12.9175 84.286 11.1407C70.44 8.02519 63.763 7.15179 60.479 8.02519L54.4517 10.8371L48.7656 13.9626C51.0127 13.1439 56.1587 12.7931 76.171 17.3917Z" fill="#404CA8"></path>
<path d="M61.165 34.1273C63.265 31.385 66.119 27.7643 68.364 25.1415C56.0112 22.362 41.3742 19.4306 37.8158 21.4661C35.2826 23.6211 31.9058 26.5077 29.497 28.8021L28.0312 30.2777C31.1617 28.4313 41.0707 29.5809 61.165 34.1273Z" fill="#404CA8"></path>
<path d="M48.6791 55.8331C50.3662 52.3891 52.673 47.8253 54.5219 44.466C46.4569 42.6519 21.9285 37.1325 19.3529 40.5168L19.3056 40.5765C17.0586 43.9011 14.1446 48.3951 12.124 51.8641C13.097 50.9881 16.0582 48.3201 48.6791 55.8331Z" fill="#404CA8"></path>
<path d="M39.6115 81.6331C40.7413 77.6421 42.314 72.3361 43.6179 68.4001C34.0449 66.2471 8.61556 60.5311 6.34616 64.4931L4.76596 69.0371C4.03186 71.6771 2.97926 75.1831 2.36716 77.8531C3.13106 76.7431 5.16166 73.7901 39.6115 81.6331Z" fill="#404CA8"></path>
<path d="M35.1992 108.192C35.6073 104.247 36.2144 98.9941 36.7892 95.0731C20.602 91.4271 1.82678 87.7271 0.296383 91.4891L0.0102844 96.8941C0.0450844 99.2911 -0.00221555 102.488 0.129684 104.88C1.12008 101.881 11.6038 102.874 35.1992 108.192Z" fill="#404CA8"></path>
<path d="M35.4489 133.454C35.1752 129.764 34.8716 124.837 34.7646 121.137C26.4533 119.263 1.16576 113.559 1.77296 118.163C2.43736 121.007 3.28096 124.812 4.08216 127.621L5.10746 130.876C5.08756 129.786 5.02536 126.469 35.4489 133.454Z" fill="#404CA8"></path>
<path d="M40.044 156.161C39.1308 152.914 37.9786 148.562 37.2395 145.272C29.4831 143.523 8.88138 138.872 10.138 143.149C11.9994 146.621 14.5799 151.202 16.6652 154.546C15.207 151.06 28.5748 153.499 40.044 156.161Z" fill="#404CA8"></path>
<path d="M48.6678 175.054C47.1623 172.449 45.2214 168.928 43.8975 166.223C29.7732 163.04 23.2659 162.585 24.5524 164.867L24.7988 165.19L26.9264 167.537C29.1162 169.719 32.0402 172.623 34.3395 174.689C33.7497 174.109 32.5204 172.899 35.7753 172.917C38.1791 172.927 42.5164 173.648 48.6678 175.054Z" fill="#404CA8"></path>
<path d="M61.022 188.884C58.9761 187.115 56.3035 184.676 54.4297 182.723C45.021 180.62 43.722 181.21 44.2894 182.073C44.374 182.203 44.69 182.578 45.7899 183.263C47.8428 184.512 50.6 186.152 52.7052 187.316C55.7461 188.887 55.8033 188.914 57.4656 189.69C58.0454 189.957 58.8218 190.31 59.4041 190.569C58.3714 190.106 55.226 188.695 55.9377 188.27C56.5598 187.899 59.9167 188.64 61.022 188.884Z" fill="#404CA8"></path>
<path d="M112.658 0.968885C114.216 1.18529 115.906 1.44659 117.812 1.77009C114.873 1.13809 113.437 0.961385 112.658 0.968885Z" fill="#404CA8"></path>
<mask id="mask0_1_68" style="mask-type:luminance" maskUnits="userSpaceOnUse" x="98" y="0" width="58" height="21">
<path d="M155.888 20.9203L151.185 17.0334L146.198 13.4898C137.77 12.1237 112.896 3.9691 111.649 1.2343C111.811 1.1099 112.012 0.977999 112.659 0.967999C107.794 0.296198 104.278 0.0946 99.995 0C98.637 0.0274 98.604 0.0846005 98.296 0.629601C100.272 4.5762 138.489 18.0411 155.888 20.9203Z" fill="white"></path>
</mask>
<g mask="url(#mask0_1_68)">
<path d="M155.888 20.9203L151.185 17.0334L146.198 13.4898C137.77 12.1237 112.896 3.9691 111.649 1.2343C111.811 1.1099 112.012 0.977999 112.659 0.967999C107.794 0.296198 104.278 0.0946 99.995 0C98.637 0.0274 98.604 0.0846005 98.296 0.629601C100.272 4.5762 138.489 18.0411 155.888 20.9203Z" fill="url(#paint0_linear_1_68)"></path>
</g>
<mask id="mask1_1_68" style="mask-type:luminance" maskUnits="userSpaceOnUse" x="72" y="0" width="96" height="39">
<path d="M167.821 38.94L164.705 33.9358L161.649 29.693C161.42 29.372 161.094 29.1555 160.706 29.0759C138.218 24.4275 88.216 7.5634 84.983 1.5762C85.279 1.2925 85.774 0.998904 86.173 0.911804L83.863 1.2552C80.606 1.8424 76.303 2.8428 73.083 3.6068L72.499 3.8581C72.429 4.0994 72.334 4.4254 72.26 4.6693C76.585 11.3532 134.635 32.174 167.821 38.94Z" fill="white"></path>
</mask>
<g mask="url(#mask1_1_68)">
<path d="M167.821 38.94L164.705 33.9358L161.649 29.693C161.42 29.372 161.094 29.1555 160.706 29.0759C138.218 24.4275 88.216 7.5634 84.983 1.5762C85.279 1.2925 85.774 0.998904 86.173 0.911804L83.863 1.2552C80.606 1.8424 76.303 2.8428 73.083 3.6068L72.499 3.8581C72.429 4.0994 72.334 4.4254 72.26 4.6693C76.585 11.3532 134.635 32.174 167.821 38.94Z" fill="url(#paint1_linear_1_68)"></path>
</g>
<mask id="mask2_1_68" style="mask-type:luminance" maskUnits="userSpaceOnUse" x="24" y="165" width="88" height="33">
<path d="M26.9289 167.537C29.0764 169.761 32.0824 172.581 34.3419 174.688C40.8094 180.118 78.972 193.531 100.445 197.938L101.005 197.953L106.088 197.174L111.411 195.93C85.278 190.624 32.6722 172.593 24.8013 165.19L26.9289 167.537Z" fill="white"></path>
</mask>
<g mask="url(#mask2_1_68)">
<path d="M26.9289 167.537C29.0764 169.761 32.0824 172.581 34.3419 174.688C40.8094 180.118 78.972 193.531 100.445 197.938L101.005 197.953L106.088 197.174L111.411 195.93C85.278 190.624 32.6722 172.593 24.8013 165.19L26.9289 167.537Z" fill="url(#paint2_linear_1_68)"></path>
</g>
<mask id="mask3_1_68" style="mask-type:luminance" maskUnits="userSpaceOnUse" x="45" y="183" width="47" height="16">
<path d="M85.746 198.004C86.482 198.109 87.169 198.198 87.794 198.278C87.082 198.188 86.4 198.096 85.746 198.004ZM52.7044 187.316C54.3692 188.2 54.4861 188.257 57.4673 189.69C58.0471 189.959 58.826 190.307 59.4058 190.569C62.768 192.034 69.133 194.381 76.009 196.178C76.501 196.292 76.964 196.392 77.434 196.494C76.917 196.382 76.429 196.272 76.009 196.178C77.925 196.663 78.86 196.83 79.477 196.927L79.042 196.837L79.507 196.932L79.477 196.927L79.803 196.991C80.127 197.056 80.438 197.116 80.749 197.176C81.015 197.225 81.287 197.275 81.568 197.327C81.879 197.385 82.182 197.439 82.481 197.489C82.76 197.539 83.048 197.586 83.344 197.636C83.643 197.683 83.929 197.73 84.21 197.773L84.25 197.78L84.24 197.778C84.566 197.83 84.892 197.88 85.198 197.925C84.875 197.877 84.561 197.83 84.25 197.78L85.686 198.039L89.133 198.445L91.569 198.636C82.65 197.35 55.2526 188.752 45.7891 183.263C47.8346 184.529 50.6117 186.134 52.7044 187.316Z" fill="white"></path>
</mask>
<g mask="url(#mask3_1_68)">
<path d="M85.746 198.004C86.482 198.109 87.169 198.198 87.794 198.278C87.082 198.188 86.4 198.096 85.746 198.004ZM52.7044 187.316C54.3692 188.2 54.4861 188.257 57.4673 189.69C58.0471 189.959 58.826 190.307 59.4058 190.569C62.768 192.034 69.133 194.381 76.009 196.178C76.501 196.292 76.964 196.392 77.434 196.494C76.917 196.382 76.429 196.272 76.009 196.178C77.925 196.663 78.86 196.83 79.477 196.927L79.042 196.837L79.507 196.932L79.477 196.927L79.803 196.991C80.127 197.056 80.438 197.116 80.749 197.176C81.015 197.225 81.287 197.275 81.568 197.327C81.879 197.385 82.182 197.439 82.481 197.489C82.76 197.539 83.048 197.586 83.344 197.636C83.643 197.683 83.929 197.73 84.21 197.773L84.25 197.78L84.24 197.778C84.566 197.83 84.892 197.88 85.198 197.925C84.875 197.877 84.561 197.83 84.25 197.78L85.686 198.039L89.133 198.445L91.569 198.636C82.65 197.35 55.2526 188.752 45.7891 183.263C47.8346 184.529 50.6117 186.134 52.7044 187.316Z" fill="url(#paint3_linear_1_68)"></path>
</g>
<mask id="mask4_1_68" style="mask-type:luminance" maskUnits="userSpaceOnUse" x="1" y="118" width="175" height="74">
<path d="M110.46 149.746C113.085 150.538 114.424 153.434 113.317 155.945L112.361 158.112C111.436 160.21 109.104 161.308 106.904 160.658C57.7053 146.138 5.37857 125.623 1.77777 118.163C2.36257 121.025 3.36547 124.79 4.08707 127.622L5.11237 130.877C7.78247 136.03 35.842 147.992 68.809 159.267C70.969 160.006 72.457 162.188 72.036 164.433C71.506 167.282 68.64 168.852 66.064 167.964C38.425 158.446 13.787 148.166 10.1365 143.149C11.9655 146.638 14.6107 151.182 16.6661 154.546C22.713 162.024 81.915 183.395 119.244 191.607C119.605 191.686 119.971 191.637 120.299 191.47L124.687 189.238L129.482 186.369C117.734 183.907 102.298 179.642 86.432 174.668C83.794 173.839 82.505 170.863 83.685 168.367L83.7 168.332C84.675 166.277 87.014 165.259 89.184 165.938C105.15 170.943 121.285 175.464 135.491 178.737C136.006 178.853 136.536 178.707 136.922 178.346L140.52 174.984L140.588 174.919L142.748 172.647C143.591 171.761 143.171 170.308 141.979 170.029C137.358 168.947 132.557 167.75 127.648 166.459C124.893 165.734 123.48 162.674 124.701 160.101L125.655 158.083C126.603 156.082 128.85 155.059 130.982 155.639C146.368 159.809 159.793 162.813 168.854 163.816C170.247 163.97 171.613 163.39 172.467 162.276L175 158.961L175.152 158.747C176.754 156.336 175.341 153.071 172.479 152.628C157.979 150.378 132.769 143.804 106.026 135.607C104.291 135.074 102.408 135.781 101.462 137.334L99.173 141.084C97.829 143.289 98.911 146.18 101.377 146.952C104.426 147.907 107.459 148.84 110.46 149.746Z" fill="white"></path>
</mask>
<g mask="url(#mask4_1_68)">
<path d="M110.46 149.746C113.085 150.538 114.424 153.434 113.317 155.945L112.361 158.112C111.436 160.21 109.104 161.308 106.904 160.658C57.7053 146.138 5.37857 125.623 1.77777 118.163C2.36257 121.025 3.36547 124.79 4.08707 127.622L5.11237 130.877C7.78247 136.03 35.842 147.992 68.809 159.267C70.969 160.006 72.457 162.188 72.036 164.433C71.506 167.282 68.64 168.852 66.064 167.964C38.425 158.446 13.787 148.166 10.1365 143.149C11.9655 146.638 14.6107 151.182 16.6661 154.546C22.713 162.024 81.915 183.395 119.244 191.607C119.605 191.686 119.971 191.637 120.299 191.47L124.687 189.238L129.482 186.369C117.734 183.907 102.298 179.642 86.432 174.668C83.794 173.839 82.505 170.863 83.685 168.367L83.7 168.332C84.675 166.277 87.014 165.259 89.184 165.938C105.15 170.943 121.285 175.464 135.491 178.737C136.006 178.853 136.536 178.707 136.922 178.346L140.52 174.984L140.588 174.919L142.748 172.647C143.591 171.761 143.171 170.308 141.979 170.029C137.358 168.947 132.557 167.75 127.648 166.459C124.893 165.734 123.48 162.674 124.701 160.101L125.655 158.083C126.603 156.082 128.85 155.059 130.982 155.639C146.368 159.809 159.793 162.813 168.854 163.816C170.247 163.97 171.613 163.39 172.467 162.276L175 158.961L175.152 158.747C176.754 156.336 175.341 153.071 172.479 152.628C157.979 150.378 132.769 143.804 106.026 135.607C104.291 135.074 102.408 135.781 101.462 137.334L99.173 141.084C97.829 143.289 98.911 146.18 101.377 146.952C104.426 147.907 107.459 148.84 110.46 149.746Z" fill="url(#paint4_linear_1_68)"></path>
</g>
<mask id="mask5_1_68" style="mask-type:luminance" maskUnits="userSpaceOnUse" x="179" y="128" width="21" height="16">
<path d="M196.723 141.632L199.31 136.75C200.557 134.396 199.181 131.509 196.571 130.987C193.343 130.34 190.148 129.69 187.035 129.046C185.388 128.705 183.728 129.437 182.854 130.872L179.913 135.695C178.477 138.044 179.801 141.105 182.499 141.66C185.729 142.324 189.053 142.996 192.425 143.67C194.149 144.014 195.899 143.185 196.723 141.632Z" fill="white"></path>
</mask>
<g mask="url(#mask5_1_68)">
<path d="M196.723 141.632L199.31 136.75C200.557 134.396 199.181 131.509 196.571 130.987C193.343 130.34 190.148 129.69 187.035 129.046C185.388 128.705 183.728 129.436 182.854 130.872L179.913 135.695C178.477 138.044 179.801 141.105 182.499 141.659C185.729 142.324 189.053 142.996 192.425 143.67C194.149 144.014 195.899 143.185 196.723 141.632Z" fill="url(#paint5_linear_1_68)"></path>
</g>
<mask id="mask6_1_68" style="mask-type:luminance" maskUnits="userSpaceOnUse" x="155" y="95" width="33" height="19">
<path d="M183.381 111.282L186.671 106.412C188.276 104.038 186.927 100.786 184.105 100.281C178.501 99.2701 171.611 97.7301 163.859 95.7841C162.167 95.3611 160.388 96.0751 159.479 97.5631L156.508 102.436C155.11 104.725 156.344 107.716 158.947 108.37C166.333 110.229 173.216 111.79 179.36 112.969C180.917 113.268 182.492 112.596 183.381 111.282Z" fill="white"></path>
</mask>
<g mask="url(#mask6_1_68)">
<path d="M183.381 111.282L186.671 106.412C188.276 104.038 186.927 100.786 184.105 100.281C178.501 99.2701 171.611 97.7301 163.859 95.7841C162.167 95.3611 160.388 96.0751 159.479 97.5631L156.508 102.436C155.11 104.725 156.344 107.716 158.947 108.37C166.333 110.229 173.216 111.79 179.36 112.969C180.917 113.268 182.492 112.596 183.381 111.282Z" fill="url(#paint6_linear_1_68)"></path>
</g>
<mask id="mask7_1_68" style="mask-type:luminance" maskUnits="userSpaceOnUse" x="0" y="21" width="176" height="122">
<path d="M172.515 125.967C164.371 124.191 157.503 122.593 153.033 121.413C143.582 118.918 133.113 115.889 122.244 112.535C119.596 111.716 118.29 108.732 119.477 106.227L121.545 101.864C122.513 99.8241 124.834 98.8091 126.999 99.4611C132.952 101.257 138.817 102.959 144.505 104.537C146.153 104.995 147.892 104.338 148.85 102.922L152.075 98.1471C153.596 95.8951 152.468 92.8111 149.851 92.0921C132.865 87.4211 113.47 81.4621 94.904 75.1831C92.323 74.3121 91.099 71.3791 92.263 68.9171L93.878 65.5061C94.866 63.4181 97.26 62.3981 99.447 63.1421C100.766 63.5901 102.095 64.0351 103.429 64.4811C104.683 64.8991 106.052 64.3141 106.619 63.1221L109.508 57.0601C110.187 55.6441 109.463 53.9551 107.973 53.4541C73.374 41.8459 41.8726 28.9259 37.5601 22.7148C37.6373 22.3391 37.7393 21.8389 37.8164 21.4656C35.2384 23.5683 31.9537 26.557 29.4976 28.8016L28.0319 30.2772C26.6931 34.4827 49.3926 44.9863 79.388 56.0401C81.859 56.9511 83.059 59.7501 81.999 62.1611L80.453 65.6631C79.488 67.8571 76.977 68.9301 74.725 68.1111C44.2291 57.0001 19.9893 46.0588 19.3498 40.5171L19.3025 40.5768C17.0156 43.874 14.1813 48.4181 12.1209 51.8621C11.2972 58.1031 58.3684 77.3531 106.584 93.0551C109.155 93.8911 110.441 96.7531 109.351 99.2241L107.458 103.517C106.512 105.667 104.086 106.752 101.859 106.015C55.534 90.6961 8.87347 71.9141 6.34767 64.4931L4.76507 69.0371C3.93887 71.6501 3.07537 75.2061 2.36867 77.8531C2.62497 82.1211 21.98 91.3561 48.1982 101.484C50.6219 102.419 51.7665 105.196 50.7189 107.57L48.9397 111.607C47.9568 113.844 45.3788 114.899 43.0994 114.01C20.2804 105.114 3.11277 96.7581 0.300774 91.4901L0.0146755 96.8951C-0.0450245 99.2911 0.0942731 102.484 0.131573 104.88C1.53257 111.029 43.9255 128.16 87.314 142.438C89.003 142.993 90.86 142.356 91.853 140.883L94.286 137.282C95.772 135.082 94.727 132.084 92.201 131.273C82.357 128.11 72.52 124.793 63.131 121.453C60.591 120.55 59.406 117.643 60.558 115.207L62.452 111.213C63.455 109.093 65.891 108.083 68.098 108.874C95.431 118.666 126.31 128.386 150.309 134.555C154.173 135.548 160.262 136.939 167.598 138.526C169.191 138.867 170.831 138.213 171.741 136.867L174.974 132.079C176.549 129.75 175.265 126.567 172.515 125.967Z" fill="white"></path>
</mask>
<g mask="url(#mask7_1_68)">
<path d="M172.515 125.967C164.371 124.191 157.503 122.593 153.033 121.413C143.582 118.918 133.113 115.889 122.244 112.535C119.596 111.716 118.29 108.732 119.477 106.227L121.545 101.864C122.513 99.8241 124.834 98.8091 126.999 99.4611C132.952 101.257 138.817 102.959 144.505 104.537C146.153 104.995 147.892 104.338 148.85 102.922L152.075 98.1471C153.596 95.8951 152.468 92.8111 149.851 92.0921C132.865 87.4211 113.47 81.4621 94.904 75.1831C92.323 74.3121 91.099 71.3791 92.263 68.9171L93.878 65.5061C94.866 63.4181 97.26 62.3981 99.447 63.1421C100.766 63.5901 102.095 64.0351 103.429 64.4811C104.683 64.8991 106.052 64.3141 106.619 63.1221L109.508 57.0601C110.187 55.6441 109.463 53.9551 107.973 53.4541C73.374 41.8459 41.8726 28.9259 37.5601 22.7148C37.6373 22.3391 37.7393 21.8389 37.8164 21.4656C35.2384 23.5683 31.9537 26.557 29.4976 28.8016L28.0319 30.2772C26.6931 34.4827 49.3926 44.9863 79.388 56.0401C81.859 56.9511 83.059 59.7501 81.999 62.1611L80.453 65.6631C79.488 67.8571 76.977 68.9301 74.725 68.1111C44.2291 57.0001 19.9893 46.0588 19.3498 40.5171L19.3025 40.5768C17.0156 43.874 14.1813 48.4181 12.1209 51.8621C11.2972 58.1031 58.3684 77.3531 106.584 93.0551C109.155 93.8911 110.441 96.7531 109.351 99.2241L107.458 103.517C106.512 105.667 104.086 106.752 101.859 106.015C55.534 90.6961 8.87347 71.9141 6.34767 64.4931L4.76507 69.0371C3.93887 71.6501 3.07537 75.2061 2.36867 77.8531C2.62497 82.1211 21.98 91.3561 48.1982 101.484C50.6219 102.419 51.7665 105.196 50.7189 107.57L48.9397 111.607C47.9568 113.844 45.3788 114.899 43.0994 114.01C20.2804 105.114 3.11277 96.7581 0.300774 91.4901L0.0146755 96.8951C-0.0450245 99.2911 0.0942731 102.484 0.131573 104.88C1.53257 111.029 43.9255 128.16 87.314 142.438C89.003 142.993 90.86 142.356 91.853 140.883L94.286 137.282C95.772 135.082 94.727 132.084 92.201 131.273C82.357 128.11 72.52 124.793 63.131 121.453C60.591 120.55 59.406 117.643 60.558 115.207L62.452 111.213C63.455 109.093 65.891 108.083 68.098 108.874C95.431 118.666 126.31 128.386 150.309 134.555C154.173 135.548 160.262 136.939 167.598 138.526C169.191 138.867 170.831 138.213 171.741 136.867L174.974 132.079C176.549 129.75 175.265 126.567 172.515 125.967Z" fill="url(#paint7_linear_1_68)"></path>
</g>
<mask id="mask8_1_68" style="mask-type:luminance" maskUnits="userSpaceOnUse" x="48" y="8" width="128" height="77">
<path d="M173.268 84.7961C174.288 85.0321 175.239 84.2211 175.194 83.1761L175.005 78.9111L175 78.8361L174.505 73.7321C174.44 73.0551 173.965 72.5031 173.301 72.3511C163.939 70.2261 153.182 67.3741 141.911 64.0971C139.214 63.3131 137.85 60.3021 139.052 57.7641L139.975 55.8111C140.933 53.7931 143.213 52.7751 145.36 53.3871C154.665 56.0401 163.695 58.3941 171.942 60.2551C173.119 60.5211 174.127 59.4141 173.791 58.2591L172.853 55.0341L172.823 54.9371L171.116 50.1521C170.934 49.6391 170.516 49.2611 169.983 49.1441C132.109 40.8478 62.715 16.4238 59.8056 8.86149C60.005 8.61019 60.271 8.27419 60.473 8.02539L54.4455 10.8373L48.5853 14.0574L48.2593 14.6645C49.6528 20.0445 86.554 35.0448 124.945 47.2331C127.533 48.0541 128.847 50.9311 127.747 53.4141L126.906 55.3201C125.968 57.4481 123.574 58.5381 121.362 57.8341C120.618 57.5971 119.871 57.3581 119.127 57.1201C117.911 56.7261 116.589 57.2741 116.004 58.4141L112.936 64.4261C112.205 65.8611 112.926 67.6181 114.462 68.1111C134.939 74.7231 155.859 80.7451 173.268 84.7961Z" fill="white"></path>
</mask>
<g mask="url(#mask8_1_68)">
<path d="M173.268 84.7961C174.288 85.0321 175.239 84.2211 175.194 83.1761L175.005 78.9111L175 78.8361L174.505 73.7321C174.44 73.0551 173.965 72.5031 173.301 72.3511C163.939 70.2261 153.182 67.3741 141.911 64.0971C139.214 63.3131 137.85 60.3021 139.052 57.7641L139.975 55.8111C140.933 53.7931 143.213 52.7751 145.36 53.3871C154.665 56.0401 163.695 58.3941 171.942 60.2551C173.119 60.5211 174.127 59.4141 173.791 58.2591L172.853 55.0341L172.823 54.9371L171.116 50.1521C170.934 49.6391 170.516 49.2611 169.983 49.1441C132.109 40.8478 62.715 16.4238 59.8056 8.86149C60.005 8.61019 60.271 8.27419 60.473 8.02539L54.4455 10.8373L48.5853 14.0574L48.2593 14.6645C49.6528 20.0445 86.554 35.0448 124.945 47.2331C127.533 48.0541 128.847 50.9311 127.747 53.4141L126.906 55.3201C125.968 57.4481 123.574 58.5381 121.362 57.8341C120.618 57.5971 119.871 57.3581 119.127 57.1201C117.911 56.7261 116.589 57.2741 116.004 58.4141L112.936 64.4261C112.205 65.8611 112.926 67.6181 114.462 68.1111C134.939 74.7231 155.859 80.7451 173.268 84.7961Z" fill="url(#paint8_linear_1_68)"></path>
</g>
<defs>
<linearGradient id="paint0_linear_1_68" x1="30.3617" y1="-35.5772" x2="149.489" y2="20.3331" gradientUnits="userSpaceOnUse">
<stop stop-color="#88D6C7"></stop>
<stop offset="0.260963" stop-color="#88D6C7"></stop>
<stop offset="1" stop-color="#505AB2"></stop>
</linearGradient>
<linearGradient id="paint1_linear_1_68" x1="25.4424" y1="-25.0998" x2="144.569" y2="30.8105" gradientUnits="userSpaceOnUse">
<stop stop-color="#88D6C7"></stop>
<stop offset="0.260963" stop-color="#88D6C7"></stop>
<stop offset="1" stop-color="#505AB2"></stop>
</linearGradient>
<linearGradient id="paint2_linear_1_68" x1="-47.0423" y1="129.356" x2="72.085" y2="185.267" gradientUnits="userSpaceOnUse">
<stop stop-color="#88D6C7"></stop>
<stop offset="0.260963" stop-color="#88D6C7"></stop>
<stop offset="1" stop-color="#505AB2"></stop>
</linearGradient>
<linearGradient id="paint3_linear_1_68" x1="-50.033" y1="135.709" x2="69.094" y2="191.619" gradientUnits="userSpaceOnUse">
<stop stop-color="#88D6C7"></stop>
<stop offset="0.260963" stop-color="#88D6C7"></stop>
<stop offset="1" stop-color="#505AB2"></stop>
</linearGradient>
<linearGradient id="paint4_linear_1_68" x1="-37.0393" y1="92.5001" x2="120.689" y2="166.527" gradientUnits="userSpaceOnUse">
<stop stop-color="#88D6C7"></stop>
<stop offset="0.260963" stop-color="#88D6C7"></stop>
<stop offset="1" stop-color="#505AB2"></stop>
</linearGradient>
<linearGradient id="paint5_linear_1_68" x1="-4.00443" y1="45.4867" x2="147.525" y2="116.604" gradientUnits="userSpaceOnUse">
<stop stop-color="#88D6C7"></stop>
<stop offset="0.260963" stop-color="#88D6C7"></stop>
<stop offset="1" stop-color="#505AB2"></stop>
</linearGradient>
<linearGradient id="paint6_linear_1_68" x1="4.20872" y1="25.762" x2="155.15" y2="96.6041" gradientUnits="userSpaceOnUse">
<stop stop-color="#88D6C7"></stop>
<stop offset="0.260963" stop-color="#88D6C7"></stop>
<stop offset="1" stop-color="#505AB2"></stop>
</linearGradient>
<linearGradient id="paint7_linear_1_68" x1="-16.1377" y1="47.6937" x2="141.735" y2="121.788" gradientUnits="userSpaceOnUse">
<stop stop-color="#88D6C7"></stop>
<stop offset="0.260963" stop-color="#88D6C7"></stop>
<stop offset="1" stop-color="#505AB2"></stop>
</linearGradient>
<linearGradient id="paint8_linear_1_68" x1="8.24528" y1="-4.26251" x2="166.118" y2="69.8321" gradientUnits="userSpaceOnUse">
<stop stop-color="#88D6C7"></stop>
<stop offset="0.260963" stop-color="#88D6C7"></stop>
<stop offset="1" stop-color="#505AB2"></stop>
</linearGradient>
</defs>
</svg></svg><style>@media (prefers-color-scheme: light) { :root { filter: none; } }
@media (prefers-color-scheme: dark) { :root { filter: none; } }
</style></svg>