<svg width="744" height="302" viewBox="0 0 744 302" fill="none" xmlns="http://www.w3.org/2000/svg">
<rect width="744" height="302" fill="transparent"/>
<path d="M150.149 53.6949C152.737 53.6725 156.193 53.7421 158.771 53.991L157.808 53.7695C149.845 52.4258 145.404 52.1097 139.991 52.0002C143.448 52.1445 146.73 53.3241 150.149 53.6949Z" fill="#404CA8"/>
<path d="M132.789 58.3402C135.335 57.305 138.762 55.9986 141.384 55.1873C134.564 53.647 129.365 52.6716 126.17 52.9105L123.861 53.2538C120.616 53.9008 116.289 54.7818 113.081 55.6054C116.072 55.1127 122.141 55.904 131.12 57.957C131.622 58.0715 132.277 58.38 132.789 58.3402Z" fill="#404CA8"/>
<path d="M116.171 69.3916C118.552 67.4506 121.78 64.9174 124.286 63.1406C110.44 60.0251 103.763 59.1517 100.479 60.0251L94.4517 62.837L88.7656 65.9625C91.0127 65.1438 96.1587 64.793 116.171 69.3916Z" fill="#404CA8"/>
<path d="M101.165 86.1272C103.265 83.3849 106.119 79.7642 108.364 77.1414C96.0112 74.3619 81.3742 71.4305 77.8158 73.466C75.2826 75.621 71.9058 78.5076 69.497 80.802L68.0312 82.2776C71.1617 80.4312 81.0707 81.5808 101.165 86.1272Z" fill="#404CA8"/>
<path d="M88.6791 107.833C90.3662 104.389 92.673 99.8252 94.5219 96.4659C86.4569 94.6518 61.9285 89.1324 59.3529 92.5167L59.3056 92.5764C57.0586 95.901 54.1446 100.395 52.124 103.864C53.097 102.988 56.0582 100.32 88.6791 107.833Z" fill="#404CA8"/>
<path d="M79.6115 133.633C80.7413 129.642 82.314 124.336 83.6179 120.4C74.0449 118.247 48.6156 112.531 46.3462 116.493L44.766 121.037C44.0319 123.677 42.9793 127.183 42.3672 129.853C43.1311 128.743 45.1617 125.79 79.6115 133.633Z" fill="#404CA8"/>
<path d="M75.1992 160.192C75.6073 156.247 76.2144 150.994 76.7892 147.073C60.602 143.427 41.8268 139.727 40.2964 143.489L40.0103 148.894C40.0451 151.291 39.9978 154.488 40.1297 156.88C41.1201 153.881 51.6038 154.874 75.1992 160.192Z" fill="#404CA8"/>
<path d="M75.4489 185.454C75.1752 181.764 74.8716 176.837 74.7646 173.137C66.4533 171.263 41.1658 165.559 41.773 170.163C42.4374 173.007 43.281 176.812 44.0822 179.621L45.1075 182.876C45.0876 181.786 45.0254 178.469 75.4489 185.454Z" fill="#404CA8"/>
<path d="M80.044 208.161C79.1308 204.914 77.9786 200.562 77.2395 197.272C69.4831 195.523 48.8814 190.872 50.138 195.149C51.9994 198.621 54.5799 203.202 56.6652 206.546C55.207 203.06 68.5748 205.499 80.044 208.161Z" fill="#404CA8"/>
<path d="M88.6678 227.054C87.1623 224.449 85.2214 220.928 83.8975 218.223C69.7732 215.04 63.2659 214.585 64.5524 216.867L64.7988 217.19L66.9264 219.537C69.1162 221.719 72.0402 224.623 74.3395 226.689C73.7497 226.109 72.5204 224.899 75.7753 224.917C78.1791 224.927 82.5164 225.648 88.6678 227.054Z" fill="#404CA8"/>
<path d="M101.022 240.884C98.9761 239.115 96.3035 236.676 94.4297 234.723C85.021 232.62 83.722 233.21 84.2894 234.073C84.374 234.203 84.69 234.578 85.7899 235.263C87.8428 236.512 90.6 238.152 92.7052 239.316C95.7461 240.887 95.8033 240.914 97.4656 241.69C98.0454 241.957 98.8218 242.31 99.4041 242.569C98.3714 242.106 95.226 240.695 95.9377 240.27C96.5598 239.899 99.9167 240.64 101.022 240.884Z" fill="#404CA8"/>
<path d="M152.658 52.9688C154.216 53.1852 155.906 53.4465 157.812 53.77C154.873 53.138 153.437 52.9613 152.658 52.9688Z" fill="#404CA8"/>
<mask id="mask0_48_225" style="mask-type:luminance" maskUnits="userSpaceOnUse" x="138" y="52" width="58" height="21">
<path d="M195.888 72.9202L191.185 69.0333L186.198 65.4897C177.77 64.1236 152.896 55.969 151.649 53.2342C151.811 53.1098 152.012 52.9779 152.659 52.9679C147.794 52.2961 144.278 52.0945 139.995 51.9999C138.637 52.0273 138.604 52.0845 138.296 52.6295C140.272 56.5761 178.489 70.041 195.888 72.9202Z" fill="white"/>
</mask>
<g mask="url(#mask0_48_225)">
<path d="M195.888 72.9202L191.185 69.0333L186.198 65.4897C177.77 64.1236 152.896 55.969 151.649 53.2342C151.811 53.1098 152.012 52.9779 152.659 52.9679C147.794 52.2961 144.278 52.0945 139.995 51.9999C138.637 52.0273 138.604 52.0845 138.296 52.6295C140.272 56.5761 178.489 70.041 195.888 72.9202Z" fill="url(#paint0_linear_48_225)"/>
</g>
<mask id="mask1_48_225" style="mask-type:luminance" maskUnits="userSpaceOnUse" x="112" y="52" width="96" height="39">
<path d="M207.821 90.9399L204.705 85.9357L201.649 81.6929C201.42 81.3719 201.094 81.1554 200.706 81.0758C178.218 76.4274 128.216 59.5633 124.983 53.5761C125.279 53.2924 125.774 52.9988 126.173 52.9117L123.863 53.2551C120.606 53.8423 116.303 54.8427 113.083 55.6067L112.499 55.858C112.429 56.0993 112.334 56.4253 112.26 56.6692C116.585 63.3531 174.635 84.1739 207.821 90.9399Z" fill="white"/>
</mask>
<g mask="url(#mask1_48_225)">
<path d="M207.821 90.9399L204.705 85.9357L201.649 81.6929C201.42 81.3719 201.094 81.1554 200.706 81.0758C178.218 76.4274 128.216 59.5633 124.983 53.5761C125.279 53.2924 125.774 52.9988 126.173 52.9117L123.863 53.2551C120.606 53.8423 116.303 54.8427 113.083 55.6067L112.499 55.858C112.429 56.0993 112.334 56.4253 112.26 56.6692C116.585 63.3531 174.635 84.1739 207.821 90.9399Z" fill="url(#paint1_linear_48_225)"/>
</g>
<mask id="mask2_48_225" style="mask-type:luminance" maskUnits="userSpaceOnUse" x="64" y="217" width="88" height="33">
<path d="M66.9289 219.537C69.0764 221.761 72.0824 224.581 74.3419 226.688C80.8094 232.118 118.972 245.531 140.445 249.938L141.005 249.953L146.088 249.174L151.411 247.93C125.278 242.624 72.6722 224.593 64.8013 217.19L66.9289 219.537Z" fill="white"/>
</mask>
<g mask="url(#mask2_48_225)">
<path d="M66.9289 219.537C69.0764 221.761 72.0824 224.581 74.3419 226.688C80.8094 232.118 118.972 245.531 140.445 249.938L141.005 249.953L146.088 249.174L151.411 247.93C125.278 242.624 72.6722 224.593 64.8013 217.19L66.9289 219.537Z" fill="url(#paint2_linear_48_225)"/>
</g>
<mask id="mask3_48_225" style="mask-type:luminance" maskUnits="userSpaceOnUse" x="85" y="235" width="47" height="16">
<path d="M125.746 250.004C126.482 250.109 127.169 250.198 127.794 250.278C127.082 250.188 126.4 250.096 125.746 250.004ZM92.7044 239.316C94.3692 240.2 94.4861 240.257 97.4673 241.69C98.0471 241.959 98.826 242.307 99.4058 242.569C102.768 244.034 109.133 246.381 116.009 248.178C116.501 248.292 116.964 248.392 117.434 248.494C116.917 248.382 116.429 248.272 116.009 248.178C117.925 248.663 118.86 248.83 119.477 248.927L119.042 248.837L119.507 248.932L119.477 248.927L119.803 248.991C120.127 249.056 120.438 249.116 120.749 249.176C121.015 249.225 121.287 249.275 121.568 249.327C121.879 249.385 122.182 249.439 122.481 249.489C122.76 249.539 123.048 249.586 123.344 249.636C123.643 249.683 123.929 249.73 124.21 249.773L124.25 249.78L124.24 249.778C124.566 249.83 124.892 249.88 125.198 249.925C124.875 249.877 124.561 249.83 124.25 249.78L125.686 250.039L129.133 250.445L131.569 250.636C122.65 249.35 95.2526 240.752 85.7891 235.263C87.8346 236.529 90.6117 238.134 92.7044 239.316Z" fill="white"/>
</mask>
<g mask="url(#mask3_48_225)">
<path d="M125.746 250.004C126.482 250.109 127.169 250.198 127.794 250.278C127.082 250.188 126.4 250.096 125.746 250.004ZM92.7044 239.316C94.3692 240.2 94.4861 240.257 97.4673 241.69C98.0471 241.959 98.826 242.307 99.4058 242.569C102.768 244.034 109.133 246.381 116.009 248.178C116.501 248.292 116.964 248.392 117.434 248.494C116.917 248.382 116.429 248.272 116.009 248.178C117.925 248.663 118.86 248.83 119.477 248.927L119.042 248.837L119.507 248.932L119.477 248.927L119.803 248.991C120.127 249.056 120.438 249.116 120.749 249.176C121.015 249.225 121.287 249.275 121.568 249.327C121.879 249.385 122.182 249.439 122.481 249.489C122.76 249.539 123.048 249.586 123.344 249.636C123.643 249.683 123.929 249.73 124.21 249.773L124.25 249.78L124.24 249.778C124.566 249.83 124.892 249.88 125.198 249.925C124.875 249.877 124.561 249.83 124.25 249.78L125.686 250.039L129.133 250.445L131.569 250.636C122.65 249.35 95.2526 240.752 85.7891 235.263C87.8346 236.529 90.6117 238.134 92.7044 239.316Z" fill="url(#paint3_linear_48_225)"/>
</g>
<mask id="mask4_48_225" style="mask-type:luminance" maskUnits="userSpaceOnUse" x="41" y="170" width="175" height="74">
<path d="M150.46 201.746C153.085 202.538 154.424 205.434 153.317 207.945L152.361 210.112C151.436 212.21 149.104 213.308 146.904 212.658C97.7053 198.138 45.3786 177.623 41.7778 170.163C42.3626 173.025 43.3655 176.79 44.0871 179.622L45.1124 182.877C47.7825 188.03 75.842 199.992 108.809 211.267C110.969 212.006 112.457 214.188 112.036 216.433C111.506 219.282 108.64 220.852 106.064 219.964C78.425 210.446 53.787 200.166 50.1365 195.149C51.9655 198.638 54.6107 203.182 56.6661 206.546C62.713 214.024 121.915 235.395 159.244 243.607C159.605 243.686 159.971 243.637 160.299 243.47L164.687 241.238L169.482 238.369C157.734 235.907 142.298 231.642 126.432 226.668C123.794 225.839 122.505 222.863 123.685 220.367L123.7 220.332C124.675 218.277 127.014 217.259 129.184 217.938C145.15 222.943 161.285 227.464 175.491 230.737C176.006 230.853 176.536 230.707 176.922 230.346L180.52 226.984L180.588 226.919L182.748 224.647C183.591 223.761 183.171 222.308 181.979 222.029C177.358 220.947 172.557 219.75 167.648 218.459C164.893 217.734 163.48 214.674 164.701 212.101L165.655 210.083C166.603 208.082 168.85 207.059 170.982 207.639C186.368 211.809 199.793 214.813 208.854 215.816C210.247 215.97 211.613 215.39 212.467 214.276L215 210.961L215.152 210.747C216.754 208.336 215.341 205.071 212.479 204.628C197.979 202.378 172.769 195.804 146.026 187.607C144.291 187.074 142.408 187.781 141.462 189.334L139.173 193.084C137.829 195.289 138.911 198.18 141.377 198.952C144.426 199.907 147.459 200.84 150.46 201.746Z" fill="white"/>
</mask>
<g mask="url(#mask4_48_225)">
<path d="M150.46 201.746C153.085 202.538 154.424 205.434 153.317 207.945L152.361 210.112C151.436 212.21 149.104 213.308 146.904 212.658C97.7053 198.138 45.3786 177.623 41.7778 170.163C42.3626 173.025 43.3655 176.79 44.0871 179.622L45.1124 182.877C47.7825 188.03 75.842 199.992 108.809 211.267C110.969 212.006 112.457 214.188 112.036 216.433C111.506 219.282 108.64 220.852 106.064 219.964C78.425 210.446 53.787 200.166 50.1365 195.149C51.9655 198.638 54.6107 203.182 56.6661 206.546C62.713 214.024 121.915 235.395 159.244 243.607C159.605 243.686 159.971 243.637 160.299 243.47L164.687 241.238L169.482 238.369C157.734 235.907 142.298 231.642 126.432 226.668C123.794 225.839 122.505 222.863 123.685 220.367L123.7 220.332C124.675 218.277 127.014 217.259 129.184 217.938C145.15 222.943 161.285 227.464 175.491 230.737C176.006 230.853 176.536 230.707 176.922 230.346L180.52 226.984L180.588 226.919L182.748 224.647C183.591 223.761 183.171 222.308 181.979 222.029C177.358 220.947 172.557 219.75 167.648 218.459C164.893 217.734 163.48 214.674 164.701 212.101L165.655 210.083C166.603 208.082 168.85 207.059 170.982 207.639C186.368 211.809 199.793 214.813 208.854 215.816C210.247 215.97 211.613 215.39 212.467 214.276L215 210.961L215.152 210.747C216.754 208.336 215.341 205.071 212.479 204.628C197.979 202.378 172.769 195.804 146.026 187.607C144.291 187.074 142.408 187.781 141.462 189.334L139.173 193.084C137.829 195.289 138.911 198.18 141.377 198.952C144.426 199.907 147.459 200.84 150.46 201.746Z" fill="url(#paint4_linear_48_225)"/>
</g>
<mask id="mask5_48_225" style="mask-type:luminance" maskUnits="userSpaceOnUse" x="219" y="180" width="21" height="16">
<path d="M236.723 193.632L239.31 188.75C240.557 186.396 239.181 183.509 236.571 182.987C233.343 182.34 230.148 181.69 227.035 181.046C225.388 180.705 223.728 181.437 222.854 182.872L219.913 187.695C218.477 190.044 219.801 193.105 222.499 193.66C225.729 194.324 229.053 194.996 232.425 195.67C234.149 196.014 235.899 195.185 236.723 193.632Z" fill="white"/>
</mask>
<g mask="url(#mask5_48_225)">
<path d="M236.723 193.632L239.31 188.75C240.557 186.396 239.181 183.509 236.571 182.987C233.343 182.34 230.148 181.69 227.035 181.046C225.388 180.705 223.728 181.436 222.854 182.872L219.913 187.695C218.477 190.044 219.801 193.105 222.499 193.659C225.729 194.324 229.053 194.996 232.425 195.67C234.149 196.014 235.899 195.185 236.723 193.632Z" fill="url(#paint5_linear_48_225)"/>
</g>
<mask id="mask6_48_225" style="mask-type:luminance" maskUnits="userSpaceOnUse" x="195" y="147" width="33" height="19">
<path d="M223.381 163.282L226.671 158.412C228.276 156.038 226.927 152.786 224.105 152.281C218.501 151.27 211.611 149.73 203.859 147.784C202.167 147.361 200.388 148.075 199.479 149.563L196.508 154.436C195.11 156.725 196.344 159.716 198.947 160.37C206.333 162.229 213.216 163.79 219.36 164.969C220.917 165.268 222.492 164.596 223.381 163.282Z" fill="white"/>
</mask>
<g mask="url(#mask6_48_225)">
<path d="M223.381 163.282L226.671 158.412C228.276 156.038 226.927 152.786 224.105 152.281C218.501 151.27 211.611 149.73 203.859 147.784C202.167 147.361 200.388 148.075 199.479 149.563L196.508 154.436C195.11 156.725 196.344 159.716 198.947 160.37C206.333 162.229 213.216 163.79 219.36 164.969C220.917 165.268 222.492 164.596 223.381 163.282Z" fill="url(#paint6_linear_48_225)"/>
</g>
<mask id="mask7_48_225" style="mask-type:luminance" maskUnits="userSpaceOnUse" x="40" y="73" width="176" height="122">
<path d="M212.515 177.967C204.371 176.191 197.503 174.593 193.033 173.413C183.582 170.918 173.113 167.889 162.244 164.535C159.596 163.716 158.29 160.732 159.477 158.227L161.545 153.864C162.513 151.824 164.834 150.809 166.999 151.461C172.952 153.257 178.817 154.959 184.505 156.537C186.153 156.995 187.892 156.338 188.85 154.922L192.075 150.147C193.596 147.895 192.468 144.811 189.851 144.092C172.865 139.421 153.47 133.462 134.904 127.183C132.323 126.312 131.099 123.379 132.263 120.917L133.878 117.506C134.866 115.418 137.26 114.398 139.447 115.142C140.766 115.59 142.095 116.035 143.429 116.481C144.683 116.899 146.052 116.314 146.619 115.122L149.508 109.06C150.187 107.644 149.463 105.955 147.973 105.454C113.374 93.8458 81.8726 80.9258 77.5601 74.7147C77.6373 74.339 77.7393 73.8388 77.8164 73.4655C75.2384 75.5682 71.9537 78.5569 69.4976 80.8015L68.0319 82.2771C66.6931 86.4826 89.3926 96.9862 119.388 108.04C121.859 108.951 123.059 111.75 121.999 114.161L120.453 117.663C119.488 119.857 116.977 120.93 114.725 120.111C84.2291 109 59.9893 98.0587 59.3498 92.517L59.3025 92.5767C57.0156 95.8739 54.1813 100.418 52.1209 103.862C51.2972 110.103 98.3684 129.353 146.584 145.055C149.155 145.891 150.441 148.753 149.351 151.224L147.458 155.517C146.512 157.667 144.086 158.752 141.859 158.015C95.534 142.696 48.8735 123.914 46.3477 116.493L44.7651 121.037C43.9389 123.65 43.0754 127.206 42.3687 129.853C42.625 134.121 61.98 143.356 88.1982 153.484C90.6219 154.419 91.7665 157.196 90.7189 159.57L88.9397 163.607C87.9568 165.844 85.3788 166.899 83.0994 166.01C60.2804 157.114 43.1128 148.758 40.3008 143.49L40.0147 148.895C39.955 151.291 40.0943 154.484 40.1316 156.88C41.5326 163.029 83.9255 180.16 127.314 194.438C129.003 194.993 130.86 194.356 131.853 192.883L134.286 189.282C135.772 187.082 134.727 184.084 132.201 183.273C122.357 180.11 112.52 176.793 103.131 173.453C100.591 172.55 99.406 169.643 100.558 167.207L102.452 163.213C103.455 161.093 105.891 160.083 108.098 160.874C135.431 170.666 166.31 180.386 190.309 186.555C194.173 187.548 200.262 188.939 207.598 190.526C209.191 190.867 210.831 190.213 211.741 188.867L214.974 184.079C216.549 181.75 215.265 178.567 212.515 177.967Z" fill="white"/>
</mask>
<g mask="url(#mask7_48_225)">
<path d="M212.515 177.967C204.371 176.191 197.503 174.593 193.033 173.413C183.582 170.918 173.113 167.889 162.244 164.535C159.596 163.716 158.29 160.732 159.477 158.227L161.545 153.864C162.513 151.824 164.834 150.809 166.999 151.461C172.952 153.257 178.817 154.959 184.505 156.537C186.153 156.995 187.892 156.338 188.85 154.922L192.075 150.147C193.596 147.895 192.468 144.811 189.851 144.092C172.865 139.421 153.47 133.462 134.904 127.183C132.323 126.312 131.099 123.379 132.263 120.917L133.878 117.506C134.866 115.418 137.26 114.398 139.447 115.142C140.766 115.59 142.095 116.035 143.429 116.481C144.683 116.899 146.052 116.314 146.619 115.122L149.508 109.06C150.187 107.644 149.463 105.955 147.973 105.454C113.374 93.8458 81.8726 80.9258 77.5601 74.7147C77.6373 74.339 77.7393 73.8388 77.8164 73.4655C75.2384 75.5682 71.9537 78.5569 69.4976 80.8015L68.0319 82.2771C66.6931 86.4826 89.3926 96.9862 119.388 108.04C121.859 108.951 123.059 111.75 121.999 114.161L120.453 117.663C119.488 119.857 116.977 120.93 114.725 120.111C84.2291 109 59.9893 98.0587 59.3498 92.517L59.3025 92.5767C57.0156 95.8739 54.1813 100.418 52.1209 103.862C51.2972 110.103 98.3684 129.353 146.584 145.055C149.155 145.891 150.441 148.753 149.351 151.224L147.458 155.517C146.512 157.667 144.086 158.752 141.859 158.015C95.534 142.696 48.8735 123.914 46.3477 116.493L44.7651 121.037C43.9389 123.65 43.0754 127.206 42.3687 129.853C42.625 134.121 61.98 143.356 88.1982 153.484C90.6219 154.419 91.7665 157.196 90.7189 159.57L88.9397 163.607C87.9568 165.844 85.3788 166.899 83.0994 166.01C60.2804 157.114 43.1128 148.758 40.3008 143.49L40.0147 148.895C39.955 151.291 40.0943 154.484 40.1316 156.88C41.5326 163.029 83.9255 180.16 127.314 194.438C129.003 194.993 130.86 194.356 131.853 192.883L134.286 189.282C135.772 187.082 134.727 184.084 132.201 183.273C122.357 180.11 112.52 176.793 103.131 173.453C100.591 172.55 99.406 169.643 100.558 167.207L102.452 163.213C103.455 161.093 105.891 160.083 108.098 160.874C135.431 170.666 166.31 180.386 190.309 186.555C194.173 187.548 200.262 188.939 207.598 190.526C209.191 190.867 210.831 190.213 211.741 188.867L214.974 184.079C216.549 181.75 215.265 178.567 212.515 177.967Z" fill="url(#paint7_linear_48_225)"/>
</g>
<mask id="mask8_48_225" style="mask-type:luminance" maskUnits="userSpaceOnUse" x="88" y="60" width="128" height="77">
<path d="M213.268 136.796C214.288 137.032 215.239 136.221 215.194 135.176L215.005 130.911L215 130.836L214.505 125.732C214.44 125.055 213.965 124.503 213.301 124.351C203.939 122.226 193.182 119.374 181.911 116.097C179.214 115.313 177.85 112.302 179.052 109.764L179.975 107.811C180.933 105.793 183.213 104.775 185.36 105.387C194.665 108.04 203.695 110.394 211.942 112.255C213.119 112.521 214.127 111.414 213.791 110.259L212.853 107.034L212.823 106.937L211.116 102.152C210.934 101.639 210.516 101.261 209.983 101.144C172.109 92.8477 102.715 68.4237 99.8056 60.8614C100.005 60.6101 100.271 60.2741 100.473 60.0253L94.4455 62.8372L88.5853 66.0573L88.2593 66.6644C89.6528 72.0444 126.554 87.0447 164.945 99.233C167.533 100.054 168.847 102.931 167.747 105.414L166.906 107.32C165.968 109.448 163.574 110.538 161.362 109.834C160.618 109.597 159.871 109.358 159.127 109.12C157.911 108.726 156.589 109.274 156.004 110.414L152.936 116.426C152.205 117.861 152.926 119.618 154.462 120.111C174.939 126.723 195.859 132.745 213.268 136.796Z" fill="white"/>
</mask>
<g mask="url(#mask8_48_225)">
<path d="M213.268 136.796C214.288 137.032 215.239 136.221 215.194 135.176L215.005 130.911L215 130.836L214.505 125.732C214.44 125.055 213.965 124.503 213.301 124.351C203.939 122.226 193.182 119.374 181.911 116.097C179.214 115.313 177.85 112.302 179.052 109.764L179.975 107.811C180.933 105.793 183.213 104.775 185.36 105.387C194.665 108.04 203.695 110.394 211.942 112.255C213.119 112.521 214.127 111.414 213.791 110.259L212.853 107.034L212.823 106.937L211.116 102.152C210.934 101.639 210.516 101.261 209.983 101.144C172.109 92.8477 102.715 68.4237 99.8056 60.8614C100.005 60.6101 100.271 60.2741 100.473 60.0253L94.4455 62.8372L88.5853 66.0573L88.2593 66.6644C89.6528 72.0444 126.554 87.0447 164.945 99.233C167.533 100.054 168.847 102.931 167.747 105.414L166.906 107.32C165.968 109.448 163.574 110.538 161.362 109.834C160.618 109.597 159.871 109.358 159.127 109.12C157.911 108.726 156.589 109.274 156.004 110.414L152.936 116.426C152.205 117.861 152.926 119.618 154.462 120.111C174.939 126.723 195.859 132.745 213.268 136.796Z" fill="url(#paint8_linear_48_225)"/>
</g>
<rect x="264.776" y="75" width="1.28766" height="153" fill="#3059A8"/>
<path d="M309.539 80.594H342.956V92.602H324.233V102.24H341.771V113.774H324.233V124.992H343.667V137H309.539V80.594ZM367.13 104.926H369.895C371.739 104.926 373.134 104.373 374.082 103.267C375.083 102.161 375.583 100.423 375.583 98.053C375.583 93.471 373.687 91.18 369.895 91.18H367.13V104.926ZM352.436 80.594H374.477C377.269 80.594 379.691 81.0417 381.745 81.937C383.799 82.8323 385.485 84.07 386.801 85.65C388.171 87.1773 389.171 88.9943 389.803 91.101C390.435 93.2077 390.751 95.4987 390.751 97.974C390.751 103.82 389.171 108.218 386.011 111.167C382.904 114.064 378.322 115.512 372.265 115.512H367.13V137H352.436V80.594ZM398.818 80.594H413.512V137H398.818V80.594ZM446.358 97.737C446.358 94.5243 446.042 92.3387 445.41 91.18C444.778 90.0213 443.751 89.442 442.329 89.442C441.223 89.442 440.327 89.7317 439.643 90.311C439.011 90.8903 438.51 91.9173 438.142 93.392C437.826 94.8667 437.615 96.868 437.51 99.396C437.404 101.871 437.352 105.005 437.352 108.797C437.352 112.589 437.404 115.749 437.51 118.277C437.615 120.752 437.826 122.727 438.142 124.202C438.51 125.677 439.011 126.704 439.643 127.283C440.327 127.862 441.223 128.152 442.329 128.152C443.224 128.152 443.961 127.941 444.541 127.52C445.12 127.046 445.568 126.282 445.884 125.229C446.2 124.176 446.41 122.78 446.516 121.042C446.674 119.251 446.753 117.013 446.753 114.327H460.973V118.514C460.973 122.464 460.446 125.703 459.393 128.231C458.339 130.759 456.944 132.76 455.206 134.235C453.468 135.657 451.466 136.605 449.202 137.079C446.99 137.606 444.699 137.869 442.329 137.869C438.221 137.869 434.85 137.369 432.217 136.368C429.583 135.367 427.529 133.708 426.055 131.391C424.58 129.021 423.553 125.993 422.974 122.306C422.447 118.567 422.184 114.064 422.184 108.797C422.184 103.425 422.5 98.8693 423.132 95.13C423.816 91.3907 424.949 88.3623 426.529 86.045C428.109 83.7277 430.189 82.0687 432.77 81.068C435.35 80.0147 438.537 79.488 442.329 79.488C445.647 79.488 448.464 79.9093 450.782 80.752C453.099 81.5947 454.969 82.806 456.391 84.386C457.865 85.9133 458.919 87.783 459.551 89.995C460.235 92.1543 460.578 94.6033 460.578 97.342V100.897H446.358V97.737ZM494.696 80.594H528.113V92.602H509.39V102.24H526.928V113.774H509.39V124.992H528.824V137H494.696V80.594ZM552.84 104.452H555.763C557.869 104.452 559.423 103.846 560.424 102.635C561.424 101.371 561.925 99.7383 561.925 97.737C561.925 95.367 561.424 93.6817 560.424 92.681C559.476 91.6803 557.896 91.18 555.684 91.18H552.84V104.452ZM538.146 80.594H561.135C563.926 80.594 566.296 80.9627 568.245 81.7C570.246 82.4373 571.852 83.4907 573.064 84.86C574.328 86.1767 575.223 87.7567 575.75 89.6C576.329 91.4433 576.619 93.4447 576.619 95.604C576.619 99.396 575.855 102.451 574.328 104.768C572.8 107.085 570.351 108.507 566.981 109.034V109.192C570.509 109.508 572.932 110.746 574.249 112.905C575.565 115.064 576.224 118.04 576.224 121.832V126.651C576.224 127.388 576.224 128.152 576.224 128.942C576.224 129.732 576.25 130.496 576.303 131.233C576.355 131.918 576.434 132.55 576.54 133.129C576.645 133.708 576.777 134.156 576.935 134.472C577.145 134.788 577.356 135.104 577.567 135.42C577.777 135.683 578.12 135.947 578.594 136.21V137H562.952C562.583 136.263 562.293 135.394 562.083 134.393C561.925 133.392 561.793 132.392 561.688 131.391C561.635 130.39 561.582 129.442 561.53 128.547C561.53 127.599 561.53 126.835 561.53 126.256V122.464C561.53 120.884 561.451 119.567 561.293 118.514C561.135 117.461 560.845 116.644 560.424 116.065C560.055 115.433 559.555 115.012 558.923 114.801C558.343 114.538 557.606 114.406 556.711 114.406H552.84V137H538.146V80.594ZM601.6 104.926H604.365C606.208 104.926 607.604 104.373 608.552 103.267C609.553 102.161 610.053 100.423 610.053 98.053C610.053 93.471 608.157 91.18 604.365 91.18H601.6V104.926ZM586.906 80.594H608.947C611.738 80.594 614.161 81.0417 616.215 81.937C618.269 82.8323 619.954 84.07 621.271 85.65C622.64 87.1773 623.641 88.9943 624.273 91.101C624.905 93.2077 625.221 95.4987 625.221 97.974C625.221 103.82 623.641 108.218 620.481 111.167C617.374 114.064 612.792 115.512 606.735 115.512H601.6V137H586.906V80.594Z" fill="#130D7C"/>
<path d="M341.415 182.64C341.031 178.944 339.687 176.28 337.383 174.648C335.127 172.968 332.223 172.128 328.671 172.128C327.231 172.128 325.815 172.272 324.423 172.56C323.031 172.848 321.783 173.328 320.679 174C319.623 174.672 318.759 175.584 318.087 176.736C317.463 177.84 317.151 179.232 317.151 180.912C317.151 182.496 317.607 183.792 318.519 184.8C319.479 185.76 320.727 186.552 322.263 187.176C323.847 187.8 325.623 188.328 327.591 188.76C329.559 189.144 331.551 189.576 333.567 190.056C335.631 190.536 337.647 191.112 339.615 191.784C341.583 192.408 343.335 193.272 344.871 194.376C346.455 195.48 347.703 196.872 348.615 198.552C349.575 200.232 350.055 202.344 350.055 204.888C350.055 207.624 349.431 209.976 348.183 211.944C346.983 213.864 345.423 215.448 343.503 216.696C341.583 217.896 339.423 218.76 337.023 219.288C334.671 219.864 332.319 220.152 329.967 220.152C327.087 220.152 324.351 219.792 321.759 219.072C319.215 218.352 316.959 217.272 314.991 215.832C313.071 214.344 311.535 212.472 310.383 210.216C309.279 207.912 308.727 205.2 308.727 202.08H315.207C315.207 204.24 315.615 206.112 316.431 207.696C317.295 209.232 318.399 210.504 319.743 211.512C321.135 212.52 322.743 213.264 324.567 213.744C326.391 214.224 328.263 214.464 330.183 214.464C331.719 214.464 333.255 214.32 334.791 214.032C336.375 213.744 337.791 213.264 339.039 212.592C340.287 211.872 341.295 210.912 342.063 209.712C342.831 208.512 343.215 206.976 343.215 205.104C343.215 203.328 342.735 201.888 341.775 200.784C340.863 199.68 339.615 198.792 338.031 198.12C336.495 197.4 334.743 196.824 332.775 196.392C330.807 195.96 328.791 195.528 326.727 195.096C324.711 194.616 322.719 194.088 320.751 193.512C318.783 192.888 317.007 192.096 315.423 191.136C313.887 190.128 312.639 188.856 311.679 187.32C310.767 185.736 310.311 183.768 310.311 181.416C310.311 178.824 310.839 176.592 311.895 174.72C312.951 172.8 314.343 171.24 316.071 170.04C317.847 168.792 319.839 167.88 322.047 167.304C324.303 166.68 326.607 166.368 328.959 166.368C331.599 166.368 334.047 166.68 336.303 167.304C338.559 167.928 340.527 168.912 342.207 170.256C343.935 171.6 345.279 173.304 346.239 175.368C347.247 177.384 347.799 179.808 347.895 182.64H341.415ZM360.167 193.296C360.167 195.888 360.503 198.456 361.175 201C361.847 203.496 362.903 205.752 364.343 207.768C365.783 209.784 367.631 211.416 369.887 212.664C372.143 213.864 374.831 214.464 377.951 214.464C381.071 214.464 383.759 213.864 386.015 212.664C388.271 211.416 390.119 209.784 391.559 207.768C392.999 205.752 394.055 203.496 394.727 201C395.399 198.456 395.735 195.888 395.735 193.296C395.735 190.704 395.399 188.16 394.727 185.664C394.055 183.12 392.999 180.84 391.559 178.824C390.119 176.808 388.271 175.2 386.015 174C383.759 172.752 381.071 172.128 377.951 172.128C374.831 172.128 372.143 172.752 369.887 174C367.631 175.2 365.783 176.808 364.343 178.824C362.903 180.84 361.847 183.12 361.175 185.664C360.503 188.16 360.167 190.704 360.167 193.296ZM353.327 193.296C353.327 189.792 353.831 186.432 354.839 183.216C355.895 179.952 357.455 177.072 359.519 174.576C361.583 172.08 364.151 170.088 367.223 168.6C370.295 167.112 373.871 166.368 377.951 166.368C382.031 166.368 385.607 167.112 388.679 168.6C391.751 170.088 394.319 172.08 396.383 174.576C398.447 177.072 399.983 179.952 400.991 183.216C402.047 186.432 402.575 189.792 402.575 193.296C402.575 196.8 402.047 200.184 400.991 203.448C399.983 206.664 398.447 209.52 396.383 212.016C394.319 214.512 391.751 216.504 388.679 217.992C385.607 219.432 382.031 220.152 377.951 220.152C373.871 220.152 370.295 219.432 367.223 217.992C364.151 216.504 361.583 214.512 359.519 212.016C357.455 209.52 355.895 206.664 354.839 203.448C353.831 200.184 353.327 196.8 353.327 193.296ZM408.75 167.592H415.59V213.24H442.806V219H408.75V167.592ZM487.638 200.424C487.638 207 485.886 211.944 482.382 215.256C478.878 218.52 473.886 220.152 467.406 220.152C460.782 220.152 455.598 218.592 451.854 215.472C448.158 212.304 446.31 207.288 446.31 200.424V167.592H453.15V200.424C453.15 205.032 454.374 208.536 456.822 210.936C459.27 213.288 462.798 214.464 467.406 214.464C471.774 214.464 475.086 213.288 477.342 210.936C479.646 208.536 480.798 205.032 480.798 200.424V167.592H487.638V200.424ZM508.063 173.352H490.927V167.592H532.039V173.352H514.903V219H508.063V173.352ZM535.871 167.592H542.711V219H535.871V167.592ZM556.015 193.296C556.015 195.888 556.351 198.456 557.023 201C557.695 203.496 558.751 205.752 560.191 207.768C561.631 209.784 563.479 211.416 565.735 212.664C567.991 213.864 570.679 214.464 573.799 214.464C576.919 214.464 579.607 213.864 581.863 212.664C584.119 211.416 585.967 209.784 587.407 207.768C588.847 205.752 589.903 203.496 590.575 201C591.247 198.456 591.583 195.888 591.583 193.296C591.583 190.704 591.247 188.16 590.575 185.664C589.903 183.12 588.847 180.84 587.407 178.824C585.967 176.808 584.119 175.2 581.863 174C579.607 172.752 576.919 172.128 573.799 172.128C570.679 172.128 567.991 172.752 565.735 174C563.479 175.2 561.631 176.808 560.191 178.824C558.751 180.84 557.695 183.12 557.023 185.664C556.351 188.16 556.015 190.704 556.015 193.296ZM549.175 193.296C549.175 189.792 549.679 186.432 550.687 183.216C551.743 179.952 553.303 177.072 555.367 174.576C557.431 172.08 559.999 170.088 563.071 168.6C566.143 167.112 569.719 166.368 573.799 166.368C577.879 166.368 581.455 167.112 584.527 168.6C587.599 170.088 590.167 172.08 592.231 174.576C594.295 177.072 595.831 179.952 596.839 183.216C597.895 186.432 598.423 189.792 598.423 193.296C598.423 196.8 597.895 200.184 596.839 203.448C595.831 206.664 594.295 209.52 592.231 212.016C590.167 214.512 587.599 216.504 584.527 217.992C581.455 219.432 577.879 220.152 573.799 220.152C569.719 220.152 566.143 219.432 563.071 217.992C559.999 216.504 557.431 214.512 555.367 212.016C553.303 209.52 551.743 206.664 550.687 203.448C549.679 200.184 549.175 196.8 549.175 193.296ZM604.527 167.592H611.799L638.871 209.28H639.015V167.592H645.495V219H638.007L611.151 177.744H611.007V219H604.527V167.592ZM684.135 182.64C683.751 178.944 682.407 176.28 680.103 174.648C677.847 172.968 674.943 172.128 671.391 172.128C669.951 172.128 668.535 172.272 667.143 172.56C665.751 172.848 664.503 173.328 663.399 174C662.343 174.672 661.479 175.584 660.807 176.736C660.183 177.84 659.871 179.232 659.871 180.912C659.871 182.496 660.327 183.792 661.239 184.8C662.199 185.76 663.447 186.552 664.983 187.176C666.567 187.8 668.343 188.328 670.311 188.76C672.279 189.144 674.271 189.576 676.287 190.056C678.351 190.536 680.367 191.112 682.335 191.784C684.303 192.408 686.055 193.272 687.591 194.376C689.175 195.48 690.423 196.872 691.335 198.552C692.295 200.232 692.775 202.344 692.775 204.888C692.775 207.624 692.151 209.976 690.903 211.944C689.703 213.864 688.143 215.448 686.223 216.696C684.303 217.896 682.143 218.76 679.743 219.288C677.391 219.864 675.039 220.152 672.687 220.152C669.807 220.152 667.071 219.792 664.479 219.072C661.935 218.352 659.679 217.272 657.711 215.832C655.791 214.344 654.255 212.472 653.103 210.216C651.999 207.912 651.447 205.2 651.447 202.08H657.927C657.927 204.24 658.335 206.112 659.151 207.696C660.015 209.232 661.119 210.504 662.463 211.512C663.855 212.52 665.463 213.264 667.287 213.744C669.111 214.224 670.983 214.464 672.903 214.464C674.439 214.464 675.975 214.32 677.511 214.032C679.095 213.744 680.511 213.264 681.759 212.592C683.007 211.872 684.015 210.912 684.783 209.712C685.551 208.512 685.935 206.976 685.935 205.104C685.935 203.328 685.455 201.888 684.495 200.784C683.583 199.68 682.335 198.792 680.751 198.12C679.215 197.4 677.463 196.824 675.495 196.392C673.527 195.96 671.511 195.528 669.447 195.096C667.431 194.616 665.439 194.088 663.471 193.512C661.503 192.888 659.727 192.096 658.143 191.136C656.607 190.128 655.359 188.856 654.399 187.32C653.487 185.736 653.031 183.768 653.031 181.416C653.031 178.824 653.559 176.592 654.615 174.72C655.671 172.8 657.063 171.24 658.791 170.04C660.567 168.792 662.559 167.88 664.767 167.304C667.023 166.68 669.327 166.368 671.679 166.368C674.319 166.368 676.767 166.68 679.023 167.304C681.279 167.928 683.247 168.912 684.927 170.256C686.655 171.6 687.999 173.304 688.959 175.368C689.967 177.384 690.519 179.808 690.615 182.64H684.135Z" fill="#0496C3"/>
<defs>
<linearGradient id="paint0_linear_48_225" x1="70.3617" y1="16.4227" x2="189.489" y2="72.333" gradientUnits="userSpaceOnUse">
<stop stop-color="#88D6C7"/>
<stop offset="0.260963" stop-color="#88D6C7"/>
<stop offset="1" stop-color="#505AB2"/>
</linearGradient>
<linearGradient id="paint1_linear_48_225" x1="65.4424" y1="26.9001" x2="184.569" y2="82.8104" gradientUnits="userSpaceOnUse">
<stop stop-color="#88D6C7"/>
<stop offset="0.260963" stop-color="#88D6C7"/>
<stop offset="1" stop-color="#505AB2"/>
</linearGradient>
<linearGradient id="paint2_linear_48_225" x1="-7.04228" y1="181.356" x2="112.085" y2="237.267" gradientUnits="userSpaceOnUse">
<stop stop-color="#88D6C7"/>
<stop offset="0.260963" stop-color="#88D6C7"/>
<stop offset="1" stop-color="#505AB2"/>
</linearGradient>
<linearGradient id="paint3_linear_48_225" x1="-10.033" y1="187.709" x2="109.094" y2="243.619" gradientUnits="userSpaceOnUse">
<stop stop-color="#88D6C7"/>
<stop offset="0.260963" stop-color="#88D6C7"/>
<stop offset="1" stop-color="#505AB2"/>
</linearGradient>
<linearGradient id="paint4_linear_48_225" x1="2.96077" y1="144.5" x2="160.689" y2="218.527" gradientUnits="userSpaceOnUse">
<stop stop-color="#88D6C7"/>
<stop offset="0.260963" stop-color="#88D6C7"/>
<stop offset="1" stop-color="#505AB2"/>
</linearGradient>
<linearGradient id="paint5_linear_48_225" x1="35.9956" y1="97.4865" x2="187.525" y2="168.604" gradientUnits="userSpaceOnUse">
<stop stop-color="#88D6C7"/>
<stop offset="0.260963" stop-color="#88D6C7"/>
<stop offset="1" stop-color="#505AB2"/>
</linearGradient>
<linearGradient id="paint6_linear_48_225" x1="44.2088" y1="77.7619" x2="195.15" y2="148.604" gradientUnits="userSpaceOnUse">
<stop stop-color="#88D6C7"/>
<stop offset="0.260963" stop-color="#88D6C7"/>
<stop offset="1" stop-color="#505AB2"/>
</linearGradient>
<linearGradient id="paint7_linear_48_225" x1="23.8623" y1="99.6936" x2="181.735" y2="173.788" gradientUnits="userSpaceOnUse">
<stop stop-color="#88D6C7"/>
<stop offset="0.260963" stop-color="#88D6C7"/>
<stop offset="1" stop-color="#505AB2"/>
</linearGradient>
<linearGradient id="paint8_linear_48_225" x1="48.2453" y1="47.7374" x2="206.118" y2="121.832" gradientUnits="userSpaceOnUse">
<stop stop-color="#88D6C7"/>
<stop offset="0.260963" stop-color="#88D6C7"/>
<stop offset="1" stop-color="#505AB2"/>
</linearGradient>
</defs>
</svg>
